# xmcd
#
# Track frame offsets: 
#        150
#        37338
#        70402
#        101979
#        129863
#        164224
#        194569
#        226363
#        257241
#        292685
#        315203
#
# Disc length: 4656 seconds
#
# Revision: 7
# Processed by: cddbd v1.5.2PL0 Copyright (c) Steve Scherf et al.
# Submitted via: ExactAudioCopy v1.0b3
#
DISCID=a4122e0b
DTITLE=DAISHI DANCE - MELODIES MELODIES
DYEAR=2007
DGENRE=House
TTITLE0=HOME (feat. COLDFEET)
TTITLE1=PROLOGUE OF LIFE -DD Edit- (feat. arvin homa aya)
TTITLE2=MUSIC LIFE IN FOREST
TTITLE3=from japan to japan.....
TTITLE4=I BELIEVE (feat. Kat McDowell)
TTITLE5=SOUL ROOTS
TTITLE6=LOVE AND HARMONY (feat. Roland Clark)
TTITLE7=MOONRISE....MOONSET (feat. Chieko Kinbara)
TTITLE8=WINTER NIGHT MELODIES (feat. COLDFEET)
TTITLE9=SHINE and BRIGHT
TTITLE10=LOVE, TRUST, BELIEVE -DANCE DANCE Remix- (feat. Lori Fine)
EXTD=YEAR: 2007
EXTT0=
EXTT1=
EXTT2=
EXTT3=
EXTT4=
EXTT5=
EXTT6=
EXTT7=
EXTT8=
EXTT9=
EXTT10=
PLAYORDER=
